<svg id="图层_1" data-name="图层 1" xmlns="http://www.w3.org/2000/svg" viewBox="0 0 300 300"><title>tim</title><path d="M224.4,144.2h0a9.88,9.88,0,0,1,9.7-9.9l56-.4a9.88,9.88,0,0,1,9.9,9.7h0a9.88,9.88,0,0,1-9.7,9.9l-56,.4A9.82,9.82,0,0,1,224.4,144.2Z" style="fill:#666"/><path d="M224.1,100.1h0a9.88,9.88,0,0,1,9.7-9.9l56-.4a9.88,9.88,0,0,1,9.9,9.7h0a9.88,9.88,0,0,1-9.7,9.9l-56,.4A9.75,9.75,0,0,1,224.1,100.1Z" style="fill:#666"/><path d="M179.1,159.5a6.88,6.88,0,0,1-1-10.9c15.1-13.5,24.9-35.3,24.9-59.8,0-40.9-27.2-74.1-60.6-74.1S81.8,47.9,81.8,88.8c0,24.6,9.9,46.4,25,59.9a6.88,6.88,0,0,1-1,10.9C83.9,173.4,25.1,210.9,6,223a13,13,0,0,0-6,11v39.1a12.29,12.29,0,0,0,12.3,12.3H276.5a8.71,8.71,0,0,0,8.7-8.7V233.3a11.45,11.45,0,0,0-5.4-9.8Zm79.6,106.3H26.5a6.91,6.91,0,0,1-6.9-6.9V241.4a7,7,0,0,1,3.2-5.9l103-65.6a14.63,14.63,0,0,0,6.8-12.5l-.1-6.7a14.52,14.52,0,0,0-7-12.4c-14.2-8.6-24.2-27.6-24.2-49.6,0-30.1,18.4-54.5,41.1-54.5s41.1,24.5,41.1,54.5c0,22.1-10,41.1-24.2,49.7a14.46,14.46,0,0,0-7.1,12.7l.1,6.5a14.65,14.65,0,0,0,6.8,12.3l103.5,65.7a7,7,0,0,1,3.2,5.9V259A7.07,7.07,0,0,1,258.7,265.8Z" style="fill:#666"/></svg>