<svg id="图层_1" data-name="图层 1" xmlns="http://www.w3.org/2000/svg" viewBox="0 0 300 300"><title>tim</title><path d="M150,300C67.29,300,0,232.71,0,150S67.29,0,150,0,300,67.29,300,150,232.71,300,150,300Zm0-279.17c-71.22,0-129.17,58-129.17,129.17S78.78,279.17,150,279.17s129.17-58,129.17-129.17S221.22,20.83,150,20.83Z" style="fill:#666"/><path d="M200.18,204.87,138.09,164.7a10.41,10.41,0,0,1-4.76-8.75V103.87a10.43,10.43,0,0,1,10.42-10.42h0a10.43,10.43,0,0,1,10.42,10.42v40.75a10.44,10.44,0,0,0,4.75,8.75l52.58,34a10.42,10.42,0,0,1,3.08,14.41h0A10.4,10.4,0,0,1,200.18,204.87Z" style="fill:#666"/></svg>