<svg id="图层_1" data-name="图层 1" xmlns="http://www.w3.org/2000/svg" viewBox="0 0 300 300"><title>tim</title><path d="M292,269.16H7.05A7.55,7.55,0,0,1-.5,261.61V37.39a7.55,7.55,0,0,1,7.55-7.55H292a7.55,7.55,0,0,1,7.55,7.55V261.61A7.55,7.55,0,0,1,292,269.16ZM20.53,255.68H278.47a7.55,7.55,0,0,0,7.55-7.55V50.87a7.55,7.55,0,0,0-7.55-7.55H20.53A7.55,7.55,0,0,0,13,50.87V248.13A7.55,7.55,0,0,0,20.53,255.68Z" style="fill:#666"/><path d="M119.4,150H66.6a6.59,6.59,0,0,1-6.6-6.6V90.6A6.59,6.59,0,0,1,66.6,84h52.8a6.59,6.59,0,0,1,6.6,6.6v52.8A6.59,6.59,0,0,1,119.4,150ZM79.8,136.8h26.4a6.59,6.59,0,0,0,6.6-6.6V103.8a6.59,6.59,0,0,0-6.6-6.6H79.8a6.59,6.59,0,0,0-6.6,6.6v26.4A6.59,6.59,0,0,0,79.8,136.8Z" style="fill:#666"/><rect x="151.5" y="158" width="101.5" height="14" rx="7" style="fill:#666"/><rect x="151.5" y="195" width="101.5" height="14" rx="7" style="fill:#666"/></svg>