<svg id="图层_1" data-name="图层 1" xmlns="http://www.w3.org/2000/svg" viewBox="0 0 300 300"><title>tim</title><path d="M182.75,151.33a3.32,3.32,0,0,1-.28-5.55c18.47-13.4,30.86-37.87,30.86-65.78,0-42.27-28.41-76.67-63.33-76.67S86.67,37.73,86.67,80c0,27.91,12.39,52.38,30.86,65.78a3.32,3.32,0,0,1-.28,5.55L5,216.61a10,10,0,0,0-5,8.64v61.42a10,10,0,0,0,10,10H290a10,10,0,0,0,10-10V225.25a10,10,0,0,0-5-8.64Zm98.92,132H18.33a5,5,0,0,1-5-5V230.05a5,5,0,0,1,2.49-4.33l112.45-65.38A13.51,13.51,0,0,0,135,148.65h0a13.23,13.23,0,0,0-6.29-11.41C111.76,127.1,100,105.28,100,80c0-34.92,22.43-63.33,50-63.33S200,45.08,200,80c0,25.28-11.76,47.1-28.71,57.24A13.23,13.23,0,0,0,165,148.65h0a13.51,13.51,0,0,0,6.73,11.69L285,226.21a3.31,3.31,0,0,1,1.66,2.88v49.24A5,5,0,0,1,281.67,283.33Z" style="fill:#666"/></svg>