<svg id="图层_1" data-name="图层 1" xmlns="http://www.w3.org/2000/svg" viewBox="0 0 300 300"><title>tim</title><path d="M296.27,171.83l-84.21-49a2.48,2.48,0,0,1-.21-4.16c13.86-10,23.15-28.4,23.15-49.33,0-31.71-21.31-57.51-47.5-57.51-18,0-33.61,12.19-41.68,30.06a45.35,45.35,0,0,0-18-3.8c-29.76,0-54,29.31-54,65.34,0,23.79,10.57,44.64,26.31,56.06a2.82,2.82,0,0,1-.24,4.73L4.24,219.89A8.51,8.51,0,0,0,0,227.26V279.6a8.53,8.53,0,0,0,8.52,8.53H247.16a8.52,8.52,0,0,0,8.52-8.53V231.88H292.5a7.5,7.5,0,0,0,7.5-7.51V178.31A7.49,7.49,0,0,0,296.27,171.83ZM244.32,272.5a4.26,4.26,0,0,1-4.26,4.26H15.63a4.27,4.27,0,0,1-4.27-4.26V231.35a4.28,4.28,0,0,1,2.12-3.69l95.84-55.72a11.53,11.53,0,0,0,5.74-10,11.29,11.29,0,0,0-5.36-9.73C95.25,143.61,85.23,125,85.23,103.47c0-29.77,19.11-54,42.61-54a34.39,34.39,0,0,1,14.48,3.28,37,37,0,0,1,4.29,2.31l.18.11a41.34,41.34,0,0,1,4.28,3.12v0c11.65,9.64,19.37,26.28,19.37,45.19,0,21.54-10,40.14-24.47,48.78a11.3,11.3,0,0,0-5.35,9.73,11.52,11.52,0,0,0,5.73,10l85.88,49.94h0l10.67,6.19a2.86,2.86,0,0,1,1.41,2.46v42ZM290,218.12a3.75,3.75,0,0,1-3.75,3.76H253.68a8.39,8.39,0,0,0-2.24-2l-95.68-55.63a2.82,2.82,0,0,1-.25-4.73c15.75-11.42,26.31-32.27,26.31-56.06,0-24.25-11-45.41-27.24-56.69,6.35-14.81,18.7-24.9,32.92-24.9,20.68,0,37.5,21.3,37.5,47.5,0,19-8.82,35.32-21.53,42.93a9.9,9.9,0,0,0-4.72,8.55,10.12,10.12,0,0,0,5.05,8.77l85,49.4a2.5,2.5,0,0,1,1.24,2.16Z" style="fill:#666"/></svg>