<svg id="图层_1" data-name="图层 1" xmlns="http://www.w3.org/2000/svg" viewBox="0 0 300 300"><title>tim</title><path d="M142,300.85l-116-67A16,16,0,0,1,18,220V86a16,16,0,0,1,8-13.88l116-67a16,16,0,0,1,16,0l116,67a16,16,0,0,1,8,13.88V220a16,16,0,0,1-8,13.88l-116,67A16,16,0,0,1,142,300.85ZM45.94,222.33,142,277.78a16,16,0,0,0,16,0l96.05-55.45a16,16,0,0,0,8-13.88V97.55a16,16,0,0,0-8-13.88L158,28.22a16,16,0,0,0-16,0L45.94,83.67a16,16,0,0,0-8,13.88v110.9A16,16,0,0,0,45.94,222.33Z" style="fill:#666"/><path d="M159.35,203.74a52.46,52.46,0,1,1,42.81-42.81A52.53,52.53,0,0,1,159.35,203.74Zm-1.46-83.34a32.5,32.5,0,1,0,24.2,24.2A32.55,32.55,0,0,0,157.89,120.4Z" style="fill:#666"/></svg>