<svg id="图层_1" data-name="图层 1" xmlns="http://www.w3.org/2000/svg" viewBox="0 0 100 100"><title>tim</title><path d="M19.64,64.54v9.69a2.55,2.55,0,0,0,2.55,2.55H72.25a2.55,2.55,0,0,0,2.55-2.55V64.54A2.54,2.54,0,0,0,73,62.12l-18.88-12a15.61,15.61,0,0,0,5.42-12.2c0-8.11-5.53-14.72-12.34-14.72S34.87,29.83,34.87,37.94a15.62,15.62,0,0,0,5.43,12.2l-18.88,12A2.54,2.54,0,0,0,19.64,64.54Zm4,.9,19-12.08a3.78,3.78,0,0,0,1.75-3,3.83,3.83,0,0,0-1.5-3.22,11.53,11.53,0,0,1-4.07-9.19c0-5.91,3.75-10.72,8.35-10.72S55.56,32,55.56,37.94a11.55,11.55,0,0,1-4.06,9.19A3.83,3.83,0,0,0,50,50.35a3.78,3.78,0,0,0,1.75,3l19,12.08v7.34H23.64Z" style="fill:gray"/><path d="M66.36,45.6a2,2,0,0,0,0,4h12a2,2,0,0,0,0-4Z" style="fill:gray"/><path d="M78.17,36.62h-12a2,2,0,0,0,0,4h12a2,2,0,0,0,0-4Z" style="fill:gray"/></svg>