<svg id="图层_1" data-name="图层 1" xmlns="http://www.w3.org/2000/svg" viewBox="0 0 100 100"><title>tim</title><path d="M74.54,33l-22-12.73a5,5,0,0,0-5,0L25.46,33A5,5,0,0,0,23,37.28V62.72a5,5,0,0,0,2.5,4.33l22,12.73a5,5,0,0,0,5,0l22-12.73A5,5,0,0,0,77,62.72V37.28A5,5,0,0,0,74.54,33ZM73,62.72a1,1,0,0,1-.5.87l-22,12.72a1,1,0,0,1-1,0l-22-12.72a1,1,0,0,1-.5-.87V37.28a1,1,0,0,1,.5-.87l22-12.72h0a1,1,0,0,1,1,0l22,12.72a1,1,0,0,1,.5.87Z" style="fill:gray"/><path d="M49.74,39a10.7,10.7,0,1,0,10.69,10.7A10.71,10.71,0,0,0,49.74,39Zm0,17.39a6.7,6.7,0,1,1,6.69-6.69A6.7,6.7,0,0,1,49.74,56.43Z" style="fill:gray"/></svg>