<svg id="图层_1" data-name="图层 1" xmlns="http://www.w3.org/2000/svg" viewBox="0 0 100 100"><title>tim</title><path d="M90.2,14.4H9.8a4.17,4.17,0,0,0-4.16,4.16V81.44A4.17,4.17,0,0,0,9.8,85.6H90.2a4.17,4.17,0,0,0,4.16-4.16V18.56A4.17,4.17,0,0,0,90.2,14.4Zm.16,67a.16.16,0,0,1-.16.16H9.8a.16.16,0,0,1-.16-.16V18.56a.16.16,0,0,1,.16-.16H90.2a.16.16,0,0,1,.16.16Z" style="fill:gray"/><path d="M39.32,29.52H26.45a3.8,3.8,0,0,0-3.8,3.8V46.19a3.8,3.8,0,0,0,3.8,3.8H39.32a3.8,3.8,0,0,0,3.8-3.8V33.32A3.8,3.8,0,0,0,39.32,29.52ZM39.12,46H26.65V33.52H39.12Z" style="fill:gray"/><path d="M76.82,63.12H50a2,2,0,0,0,0,4H76.82a2,2,0,0,0,0-4Z" style="fill:gray"/><path d="M76.82,51.48H50a2,2,0,0,0,0,4H76.82a2,2,0,0,0,0-4Z" style="fill:gray"/></svg>