<svg id="图层_1" data-name="图层 1" xmlns="http://www.w3.org/2000/svg" viewBox="0 0 100 100"><title>tim</title><path d="M50,81A31,31,0,1,0,19,50,31,31,0,0,0,50,81Zm0-58A27,27,0,1,1,23,50,27,27,0,0,1,50,23Z" style="fill:gray"/><rect x="35" y="43" width="6" height="6" style="fill:gray"/><rect x="59" y="43" width="6" height="6" style="fill:gray"/><path d="M49.53,68.55h.63c6.05,0,11.85-2.74,17.25-8.15a2,2,0,0,0-2.82-2.82c-4.77,4.76-9.79,7.1-14.9,7-8.19-.24-14.13-6.81-14.19-6.88a2,2,0,0,0-3,2.65C32.79,60.65,39.59,68.24,49.53,68.55Z" style="fill:gray"/></svg>