<svg id="图层_1" data-name="图层 1" xmlns="http://www.w3.org/2000/svg" viewBox="0 0 100 100"><title>tim</title><path d="M92.53,71.47,60.43,51.11a1,1,0,0,1-.45-.77,1.05,1.05,0,0,1,.43-.9c5.55-4.3,8.87-11.62,8.87-19.58C69.28,17.05,60.63,6.62,50,6.62S30.72,17.05,30.72,29.86c0,8,3.32,15.28,8.87,19.58a1.05,1.05,0,0,1,.43.9,1,1,0,0,1-.45.77L7.47,71.47a2.92,2.92,0,0,0-2.19,2.82V90.47a2.92,2.92,0,0,0,2.91,2.91H91.81a2.92,2.92,0,0,0,2.91-2.91V74.29A2.92,2.92,0,0,0,92.53,71.47ZM90.72,89.38H9.28V75.06L41.71,54.49a4.94,4.94,0,0,0,2.31-4,5.13,5.13,0,0,0-2-4.25c-4.58-3.54-7.32-9.68-7.32-16.41,0-10.61,6.85-19.24,15.28-19.24s15.28,8.63,15.28,19.24c0,6.73-2.74,12.87-7.32,16.41a5.13,5.13,0,0,0-2,4.25,4.94,4.94,0,0,0,2.31,4L90.72,75.06Z" style="fill:gray"/></svg>