<svg id="图层_1" data-name="图层 1" xmlns="http://www.w3.org/2000/svg" viewBox="0 0 100 100"><title>tim</title><path d="M79.36,55.18,63.31,45a13.89,13.89,0,0,0,4.52-10.56c0-7.18-4.92-13-11-13a10.53,10.53,0,0,0-9,5.54,10.48,10.48,0,0,0-2.18-.25c-6.62,0-12,6.42-12,14.3a15.2,15.2,0,0,0,5.2,11.79L20.71,64.3A2.53,2.53,0,0,0,19,66.71v9.37a2.52,2.52,0,0,0,2.52,2.52H69.88a2.53,2.53,0,0,0,2.53-2.52V68.4h6.17a2.48,2.48,0,0,0,2.47-2.47V57.52A2.46,2.46,0,0,0,79.36,55.18Zm-11,19.42H23v-7L41.33,56a3.75,3.75,0,0,0,1.73-3,3.82,3.82,0,0,0-1.48-3.17A11.24,11.24,0,0,1,37.67,41c0-5.68,3.59-10.3,8-10.3a6.49,6.49,0,0,1,2.31.44l.13.06a6.83,6.83,0,0,1,1,.5l.3.19c.09.05.17.12.26.18s.28.21.41.33l.15.13A11.3,11.3,0,0,1,53.68,41a11.07,11.07,0,0,1-3.91,8.83A3.78,3.78,0,0,0,48.3,53,3.74,3.74,0,0,0,50,56L68.41,67.62Zm8.64-10.2H70.92l-.24-.09L52.5,52.78A15.2,15.2,0,0,0,57.7,41c0-.35,0-.69-.06-1l0-.52c0-.34-.08-.68-.13-1s-.07-.41-.11-.61-.13-.66-.21-1-.1-.35-.16-.53a15.29,15.29,0,0,0-.62-1.76c-.07-.14-.12-.29-.19-.43-.14-.31-.3-.61-.46-.91-.08-.14-.15-.27-.24-.41a10,10,0,0,0-.55-.88l0-.07a13.79,13.79,0,0,0-1.37-1.65c-.1-.1-.2-.21-.3-.3a7.8,7.8,0,0,0-.68-.61c-.15-.13-.32-.25-.48-.38l-.47-.37a6.44,6.44,0,0,1,5.26-3.13c3.85,0,7,4.05,7,9A9.86,9.86,0,0,1,60.4,42.2a3.63,3.63,0,0,0-1.4,3A3.55,3.55,0,0,0,60.65,48l16.4,10.41Z" style="fill:gray"/></svg>