<svg id="图层_1" data-name="图层 1" xmlns="http://www.w3.org/2000/svg" viewBox="0 0 100 100"><title>tim</title><path d="M19.28,69.22V80a2.61,2.61,0,0,0,2.6,2.6H77.4A2.61,2.61,0,0,0,80,80V69.22a2.62,2.62,0,0,0-1.84-2.5L57,53.25a17,17,0,0,0,6.15-13.53c0-8.88-6-16.1-13.47-16.1s-13.47,7.22-13.47,16.1a17,17,0,0,0,6.19,13.54L21.13,66.72A2.62,2.62,0,0,0,19.28,69.22Zm4,.87L44.5,56.64a4,4,0,0,0,1.84-3.17,4.08,4.08,0,0,0-1.57-3.39,13,13,0,0,1-4.6-10.36c0-6.67,4.25-12.1,9.47-12.1s9.47,5.43,9.47,12.1a13,13,0,0,1-4.6,10.36,4.08,4.08,0,0,0-1.57,3.39,4,4,0,0,0,1.84,3.17L76,70.09v8.47H23.28Z" style="fill:gray"/></svg>