<svg id="图层_1" data-name="图层 1" xmlns="http://www.w3.org/2000/svg" viewBox="0 0 100 100"><title>tim</title><path d="M18,66.62V77.7a2.63,2.63,0,0,0,2.62,2.62H63.2a2,2,0,0,0,0-4H22V67.5L43.9,53.6a4,4,0,0,0,1.87-3.21A4.09,4.09,0,0,0,44.17,47a13.49,13.49,0,0,1-4.76-10.73c0-6.92,4.41-12.54,9.83-12.54s9.82,5.62,9.82,12.54A13.49,13.49,0,0,1,54.3,47a4.12,4.12,0,0,0-1.6,3.44,4,4,0,0,0,1.87,3.21l6.58,4.18A2,2,0,0,0,63.3,54.4l-6.6-4.18s0,0,0-.11a17.48,17.48,0,0,0,6.31-13.89c0-9.12-6.2-16.54-13.82-16.54S35.41,27.1,35.41,36.22a17.46,17.46,0,0,0,6.32,13.89c.07.06.05.1,0,.12L19.87,64.11A2.63,2.63,0,0,0,18,66.62Z" style="fill:gray"/><path d="M80,65.51H73.11V58.12a2,2,0,1,0-4,0v7.39H61.23a2,2,0,0,0,0,4h7.88V76.9a2,2,0,0,0,4,0V69.51H80a2,2,0,0,0,0-4Z" style="fill:gray"/></svg>