<svg id="图层_1" data-name="图层 1" xmlns="http://www.w3.org/2000/svg" viewBox="0 0 100 100"><title>tim</title><path d="M73.49,24.06H23.56a4,4,0,0,0-4,4V69a4,4,0,0,0,4,4h43.5a8.94,8.94,0,0,1,2.62.39l8,2.46a2.15,2.15,0,0,0,.61.09,2.07,2.07,0,0,0,1.47-.6l.88-.94-3-10.09a5,5,0,0,1-.21-1.44V28.05A4,4,0,0,0,73.49,24.06Zm-2.64,45.5A13.18,13.18,0,0,0,67.06,69H23.56V28.06H73.49V62.87a9.41,9.41,0,0,0,.37,2.58L75.51,71Z" style="fill:gray"/><path d="M58.59,47H51.1V39.51a2,2,0,0,0-4,0V47H39.62a2,2,0,0,0,0,4H47.1v7.49a2,2,0,0,0,4,0V51h7.49a2,2,0,0,0,0-4Z" style="fill:gray"/></svg>