<svg id="图层_1" data-name="图层 1" xmlns="http://www.w3.org/2000/svg" viewBox="0 0 100 100"><title>tim</title><path d="M26.68,47.68a2,2,0,0,0-2,2,25.35,25.35,0,0,0,23,25.21V80a2,2,0,0,0,4,0V74.94A25.35,25.35,0,0,0,75.32,49.68a2,2,0,0,0-4,0,21.32,21.32,0,1,1-42.64,0A2,2,0,0,0,26.68,47.68Z" style="fill:gray"/><path d="M49,66h.38A15.33,15.33,0,0,0,64.68,50.69V33.31A15.33,15.33,0,0,0,49.37,18H49A15.33,15.33,0,0,0,33.68,33.31V50.69A15.33,15.33,0,0,0,49,66ZM37.68,33.31A11.32,11.32,0,0,1,49,22h.38A11.32,11.32,0,0,1,60.68,33.31V50.69A11.32,11.32,0,0,1,49.37,62H49A11.32,11.32,0,0,1,37.68,50.69Z" style="fill:gray"/></svg>