<svg id="图层_1" data-name="图层 1" xmlns="http://www.w3.org/2000/svg" viewBox="0 0 100 100"><title>tim</title><path d="M15,74.36c4.5,3.54,8.91,5.32,13.14,5.32a15.42,15.42,0,0,0,2-.14,15,15,0,0,0,7.31-3.21,23.44,23.44,0,0,0,12.29,3.52c7.76,0,14.37-3.78,17.75-6.16,1.82,1.86,5.38,4.76,10,4.92H78c4.15,0,8.12-2.2,11.79-6.54l.14-.18c.19-.29,4.59-7.07.12-16l-.07-.12a16.22,16.22,0,0,0-9.88-6.9c-.49-12.35-9.28-21.36-9.42-21.49l-.09-.09c-18.16-16-35.52-.12-35.68,0a17.36,17.36,0,0,0-5.94,12.38c-9.39,0-13.52,4.84-14.26,5.83-4.81,5.19-7,10.55-6.62,15.93C8.65,69.3,14.73,74.16,15,74.36Zm71.48-16.6c3.15,6.38.54,11.16.14,11.84-2.93,3.42-5.94,5.11-8.9,5s-5.61-2-7-3.44h0c6-6.29,8.59-12.52,9.24-18.22A12.18,12.18,0,0,1,86.47,57.76ZM37.59,30.25c.6-.56,14.82-13.57,30.26,0,.8.81,8.53,9,8.28,20a.43.43,0,0,1,0,.11,2.16,2.16,0,0,0,0,.44c-.25,5.39-2.43,11.43-8.3,17.6-.12.11-.62.57-1.43,1.19-4.25,3.31-15,10-26.14,3.75a14.14,14.14,0,0,0,1.31-12.57A16,16,0,0,0,49,62.09c7.1-.46,11.62-5.79,11.81-6l.2-.29a14.76,14.76,0,0,0-.07-15.1l-.09-.12c-2.46-3.17-5.26-4.77-8.32-4.77-5.07,0-8.68,4.58-8.84,4.77A2,2,0,0,0,46.8,43s2.6-3.23,5.68-3.23c1.74,0,3.46,1.06,5.11,3.16a10.8,10.8,0,0,1,0,10.68,14.06,14.06,0,0,1-8.89,4.47c-3.64.24-7.34-1.33-11-4.67A24.86,24.86,0,0,1,33,42.62a2,2,0,0,0,.17-.65,1.9,1.9,0,0,0-.32-1.26A13.5,13.5,0,0,1,37.59,30.25ZM17.68,48.15l.19-.23c.14-.19,3.16-4.36,11.3-4.24A27,27,0,0,0,32.6,53a10.42,10.42,0,0,0-2.08-.22c-5.58,0-9.62,4.48-9.79,4.67a2,2,0,0,0,3,2.66s3.06-3.33,6.8-3.33c2.16,0,4.24,1.12,6.16,3.27.16.2,4,5-.11,11.59a11.37,11.37,0,0,1-6.95,3.93c-3.73.51-7.82-1-12.16-4.36-.05,0-5-4-5.43-10.12C11.72,56.86,13.62,52.51,17.68,48.15Z" style="fill:gray"/></svg>