<svg id="图层_1" data-name="图层 1" xmlns="http://www.w3.org/2000/svg" viewBox="0 0 100 100"><title>tim</title><path d="M95,59,69.22,42.66a.36.36,0,0,1-.18-.31.45.45,0,0,1,.19-.4c4.57-3.52,7.29-9.53,7.29-16.06,0-10.53-7.13-19.1-15.9-19.1-5.48,0-10.46,3.32-13.37,8.77A14.43,14.43,0,0,0,43.31,15c-9.65,0-17.5,9.44-17.5,21,0,7.21,3,13.83,8,17.72a.73.73,0,0,1,.3.63.65.65,0,0,1-.31.53L5.08,73.16A2.82,2.82,0,0,0,3,75.88V90.39a2.82,2.82,0,0,0,2.82,2.82h75a2.82,2.82,0,0,0,2.82-2.82v-13H94.27A2.74,2.74,0,0,0,97,74.67v-13A2.74,2.74,0,0,0,95,59ZM79.61,89.21H7V76.68L36,58.3a4.59,4.59,0,0,0,2.17-3.72,4.78,4.78,0,0,0-1.86-4C32.23,47.46,29.81,42,29.81,36c0-9.4,6.05-17,13.5-17a10.94,10.94,0,0,1,3.94.74l.18.08c.2.08.39.18.59.27s.56.28.84.43.52.31.78.48l.27.2c.3.21.58.42.86.66l.14.11A18.64,18.64,0,0,1,56.8,36c0,6-2.42,11.42-6.48,14.55a4.78,4.78,0,0,0-1.86,4,4.62,4.62,0,0,0,2.17,3.72l29,18.38ZM93,73.41H82.16L82,73.35l-.26-.1a1.33,1.33,0,0,0-.21-.09L52.79,54.92a.66.66,0,0,1-.31-.53.76.76,0,0,1,.31-.63c5-3.89,8-10.52,8-17.72,0-8.13-3.89-15.46-9.87-18.94,2.23-3.93,5.81-6.31,9.67-6.31,6.56,0,11.9,6.78,11.9,15.1,0,5.3-2.14,10.12-5.73,12.9A4.49,4.49,0,0,0,65,42.54a4.41,4.41,0,0,0,2,3.5L93,62.48Z" style="fill:gray"/></svg>