<svg id="图层_1" data-name="图层 1" xmlns="http://www.w3.org/2000/svg" viewBox="0 0 300 300"><title>tim</title><path d="M191.41,54.35a8.85,8.85,0,0,0-7.82,4.8l-34.17,66.31-9.89,19.18L106.86,208a8.86,8.86,0,0,1-15.8-.11L29.62,84.45a8.85,8.85,0,0,1,8-12.8L95.81,72a8.88,8.88,0,0,1,7.78,4.71l17.82,33.69a8.86,8.86,0,0,0,15.7-.09h0a8.84,8.84,0,0,0-.05-8.2l-22.78-43a8.85,8.85,0,0,0-7.77-4.71L8.92,53.77a8.85,8.85,0,0,0-8,12.8L90.79,247.11a8.85,8.85,0,0,0,15.79.11l43-83.51,9.89-19.18L194.42,76.8a8.85,8.85,0,0,1,7.82-4.8l60.25-.36a8.86,8.86,0,0,1,8,12.78l-61.28,124a8.85,8.85,0,0,1-15.76.22l-15.82-29.89a8.86,8.86,0,0,0-15.7.09h0A8.87,8.87,0,0,0,162,187l32,60.48a8.85,8.85,0,0,0,15.76-.22L299.07,66.54a8.85,8.85,0,0,0-8-12.77Z" style="fill:#666"/></svg>