<svg id="图层_1" data-name="图层 1" xmlns="http://www.w3.org/2000/svg" viewBox="0 0 300 300"><title>tim</title><path d="M300,232.59v-206a4.49,4.49,0,0,0-4.48-4.48H4.48A4.49,4.49,0,0,0,0,26.63v206a4.48,4.48,0,0,0,4.48,4.48H138.8a4.48,4.48,0,0,1,4.48,4.49V255a4.47,4.47,0,0,1-4.48,4.48H60.45A4.49,4.49,0,0,0,56,264v13.42a4.49,4.49,0,0,0,4.48,4.48H253a4.48,4.48,0,0,0,4.48-4.48V264a4.48,4.48,0,0,0-4.48-4.49H170.15a4.48,4.48,0,0,1-4.48-4.48V241.56a4.49,4.49,0,0,1,4.48-4.49H295.52A4.48,4.48,0,0,0,300,232.59ZM26.87,44.54H273.13A4.48,4.48,0,0,1,277.61,49V210.2a4.49,4.49,0,0,1-4.48,4.49H26.87a4.49,4.49,0,0,1-4.48-4.49V49A4.48,4.48,0,0,1,26.87,44.54Z" style="fill:#666"/></svg>