<svg id="图层_1" data-name="图层 1" xmlns="http://www.w3.org/2000/svg" viewBox="0 0 300 300"><title>tim</title><path d="M143,31.39a92.89,92.89,0,0,1,63.44,11.87c29.6,18.05,48.93,51.72,49.76,86.37.17.84-.37,2.48,1,2.54a52,52,0,0,1,27.18,14.16,51.85,51.85,0,0,1,6.05,67.15A52.39,52.39,0,0,1,211,220.54a107.67,107.67,0,0,1-47.76,18.58A100.94,100.94,0,0,1,111,232a37.06,37.06,0,0,1-7.7-3.88c-11.57,7.78-25.92,10.68-39.69,9.42-13.1-1.09-26.08-5.51-36.56-13.56A73.7,73.7,0,0,1,5.4,196.08c-11.3-25.48-4.24-57.2,15.4-76.64a70.1,70.1,0,0,1,52-20.85A77,77,0,0,1,93.34,57.75,89.27,89.27,0,0,1,143,31.39m-.78,19.89a69.84,69.84,0,0,0-40.51,26.6,59.71,59.71,0,0,0-10.81,34.3,55.53,55.53,0,0,0,11.75,34.73c9.43,11.61,24.12,18.41,39,19.11a44.14,44.14,0,0,0,26.87-7.44c8.74-6.13,14.8-16.74,13.76-27.61-1.25-10.15-7.89-20-17.75-23.4-5.78-2.12-12.72-1.65-17.63,2.25-3.07,2-4.67,5.52-7.58,7.72a9.78,9.78,0,0,1-13.19-2.33,9.57,9.57,0,0,1-.24-11.11c6.17-9.25,16.41-15.89,27.57-16.92,10.88-1.26,21.89,2.58,30.43,9.25a48.79,48.79,0,0,1,17.51,31.23,47.16,47.16,0,0,1-6.71,30.67c-6.18,10.64-16.45,18.51-27.86,22.89-13.83,5.39-29.43,5.4-43.59,1.22a46.48,46.48,0,0,1-6.36,30.89c24.91,11.49,55.29,8.85,78.38-5.7,24.55-14.55,40.63-42,41.55-70.53a86,86,0,0,0-14.74-52.35c-8.22-12.12-19.32-22.57-32.76-28.64a73.37,73.37,0,0,0-47.06-4.83m-107,81.16c-15,14.27-20.16,38.24-11.27,57.11,5.44,11.51,15,21.5,27.27,25.67a51.57,51.57,0,0,0,31.36,1.5,29.81,29.81,0,0,0,17.6-13.2,26.93,26.93,0,0,0,1.6-25.68c-2.6-5.51-7.53-10.2-13.62-11.43-5.14-1.14-11.06-.45-15,3.26-3,2.6-3.12,7.19-6.24,9.73C62.11,183,54.3,181,52,175.48c-2.27-4.62.27-9.64,2.56-13.69,5.2-8.83,15.12-13.88,25.06-15.11a75.64,75.64,0,0,1-7.79-28.63c-13.56-.85-26.94,5.11-36.62,14.39m219.55,19.1a105.67,105.67,0,0,1-14.32,37.84A121.16,121.16,0,0,1,226,208.08,33.22,33.22,0,0,0,261.9,213a32.64,32.64,0,0,0-7.16-61.43Zm0,0" style="fill:#666"/></svg>